<svg id="Layer_1" data-name="Layer 1" xmlns="http://www.w3.org/2000/svg" viewBox="0 0 591.68 73.82"><defs><style>.cls-1{fill:#b2a1a1;}.cls-2{fill:#333;}.cls-3{fill:none;stroke:#b2a1a1;stroke-linecap:round;stroke-linejoin:round;stroke-width:3px;}</style></defs><title>logo-intoeetive-beige-darkgrey</title><g id="beige-darkgrey"><path class="cls-1" d="M224.54,450.55h4.07v55.92h-4.07Z" transform="translate(-224.54 -440.83)"/><path class="cls-1" d="M308.34,450.55v55.92H305L266.88,457.9v48.57h-4.07V450.55h3.43l38,48.57V450.55Z" transform="translate(-224.54 -440.83)"/><path class="cls-1" d="M342.54,454.23H322.41v-3.68h44.33v3.68H346.62v52.24h-4.08Z" transform="translate(-224.54 -440.83)"/><path class="cls-2" d="M617.88,454.23H597.75v-3.68h44.33v3.68H622v52.24h-4.07Z" transform="translate(-224.54 -440.83)"/><path class="cls-2" d="M764.88,450.55,740,506.47h-4.07L711,450.55h4.48L738,501.19l22.61-50.64Z" transform="translate(-224.54 -440.83)"/><path class="cls-2" d="M816.22,502.79v3.68H777.64V450.55H815v3.68H781.71v22H811.5v3.6H781.71v22.92Z" transform="translate(-224.54 -440.83)"/><path class="cls-3" d="M457.41,490.56s2.23,11.22-7.78,11.22c0,0,0,10.1-8.9,6.73,0,0-3.34,5.61-7.79,4.49a7.68,7.68,0,0,1-5.56-4.49V488.15a10.67,10.67,0,0,0,0-20.83V445.7s1.11-3.37,6.67-3.37,6.68,3.37,6.68,3.37,6.67-2.25,8.9,6.73c0,0,8.89,1.12,6.67,12.33,0,0,8.9,4.49,2.22,12.34C458.52,477.1,465.2,485,457.41,490.56Z" transform="translate(-224.54 -440.83)"/><path class="cls-3" d="M438.5,500.66s3.34,1.12,2.23,7.85" transform="translate(-224.54 -440.83)"/><path class="cls-3" d="M457.41,490.57s-5.56,2.24-7.78-1.13" transform="translate(-224.54 -440.83)"/><path class="cls-3" d="M456.3,464.77s-3.34,5.6-8.9,3.36" transform="translate(-224.54 -440.83)"/><path class="cls-3" d="M422.38,445.7v21.7a10.68,10.68,0,0,0,0,20.67v20.44a7.68,7.68,0,0,1-5.56,4.49c-4.45,1.12-7.79-4.49-7.79-4.49-8.9,3.37-8.9-6.73-8.9-6.73-10,0-7.78-11.22-7.78-11.22-7.79-5.6-1.11-13.46-1.11-13.46-6.68-7.85,2.22-12.34,2.22-12.34-2.22-11.21,6.67-12.33,6.67-12.33,2.23-9,8.9-6.73,8.9-6.73s1.11-3.37,6.68-3.37S422.38,445.7,422.38,445.7Z" transform="translate(-224.54 -440.83)"/><path class="cls-3" d="M411.26,500.66s-3.34,1.12-2.23,7.85" transform="translate(-224.54 -440.83)"/><path class="cls-3" d="M392.35,490.57s5.56,2.24,7.78-1.13" transform="translate(-224.54 -440.83)"/><path class="cls-3" d="M393.46,464.77s3.34,5.6,8.9,3.36" transform="translate(-224.54 -440.83)"/><path class="cls-2" d="M521.2,502.79v3.68H482.62V450.55H520v3.68H486.69v22h29.8v3.6h-29.8v22.92Z" transform="translate(-224.54 -440.83)"/><path class="cls-2" d="M580.2,502.79v3.68H541.62V450.55H579v3.68H545.7v22h29.79v3.6H545.7v22.92Z" transform="translate(-224.54 -440.83)"/><path class="cls-2" d="M676.88,449.78H681V505.7h-4.08Z" transform="translate(-224.54 -440.83)"/></g></svg>